# xmcd
#
# Track frame offsets:
#	150
#	5266
#	38153
#	39748
#	66461
#	73018
#	88375
#	107127
#	129696
#	132952
#	134595
#	154909
#	175394
#	192885
#	205941
#	207024
#	223546
#	224661
#	242741
#	264355
#	265315
#	285772
#	287463
#
# Disc length: 4135 seconds
# Revision: 0
# Processed by: cddbd v1.5.2PL0 Copyright (c) Steve Scherf et al.
# Submitted via: dBpowerAMP V12.0
#
DISCID=6c102517
DTITLE=Guy Clark - Songs and Stories
DYEAR=2011
DGENRE=Country
TTITLE0=Introduction
TTITLE1=L.A. Freeway
TTITLE2=Story: Sometimes They Come Easy
TTITLE3=Maybe I Can Paint Over That
TTITLE4=Story: Townes’ Road Keets
TTITLE5=If I Needed You
TTITLE6=The Cape
TTITLE7=Homegrown Tomatoes
TTITLE8=Shawn and Verlon
TTITLE9=Story: The Legend of Sis Draper
TTITLE10=Sis Draper
TTITLE11=Magnolia Wind
TTITLE12=Story: I’m From Greasy Bend
TTITLE13=Darwettia’s Mandolin
TTITLE14=Story: Hang in There
TTITLE15=Joe Walker’s Mare
TTITLE16=A Nod to Rodney Crowell
TTITLE17=Stuff That Works
TTITLE18=Out in the Parkin’ Lot
TTITLE19=Intro: The Randall Knife
TTITLE20=The Randall Knife
TTITLE21=Curtain Call for the Cast
TTITLE22=Dublin Blues
EXTD=
EXTT0=
EXTT1=
EXTT2=
EXTT3=
EXTT4=
EXTT5=
EXTT6=
EXTT7=
EXTT8=
EXTT9=
EXTT10=
EXTT11=
EXTT12=
EXTT13=
EXTT14=
EXTT15=
EXTT16=
EXTT17=
EXTT18=
EXTT19=
EXTT20=
EXTT21=
EXTT22=
PLAYORDER=
